{"title":"Russian Godfathers ","uid":9247961,"size":1086202698,"categoryP":"video","categoryS":"movies","magnet":"?xt=urn:btih:e5d72829173736cf0bee510844fe5fde2c48e378&amp;dn=Russian+Godfathers+&amp;tr=udp%3A%2F%2Ftracker.openbittorrent.com%3A80&amp;tr=udp%3A%2F%2Fopen.demonii.com%3A1337&amp;tr=udp%3A%2F%2Ftracker.coppersurfer.tk%3A6969&amp;tr=udp%3A%2F%2Fexodus.desync.com%3A6969","seeders":1,"leechers":0,"uploader":"yfjfrj","files":3,"time":1385406354,"description":"This BBC documentary series examines the relationship between Russia's richest men (&quot;the oligarchs&quot;) and Putin's administration in the Kremlin. The series follows each one in turn to find out what they were up to in the years leading up to 2005, and the crew is granted intimate access. Two of the five are now in exile, wanted on criminal charges, and planning their own anti-Putin campaigns with their wealth and influence.\n\nMediaInfo 0.7.65:\nGeneral\nComplete name                            : D:moviesBBC_Russian_GodfathersBBC_Russian_Godfathers_I_The_Fugitive_TVRip_DivX_CO.avi\nFormat                                   : AVI\nFormat/Info                              : Audio Video Interleave\nFile size                                : 345 MiB\nDuration                                 : 59mn 16s\nOverall bit rate                         : 813 Kbps\nWriting application                      : MEncoder dev-CVS-050123-19:55-3.3\nWriting library                          : MPlayer\n\nVideo\nID                                       : 0\nFormat                                   : MPEG-4 Visual\nFormat profile                           : Simple@L1\nFormat settings, BVOP                    : No\nFormat settings, QPel                    : No\nFormat settings, GMC                     : No warppoints\nFormat settings, Matrix                  : Default (H.263)\nCodec ID                                 : DIVX\nCodec ID/Info                            : Project Mayo\nCodec ID/Hint                            : DivX 4\nDuration                                 : 59mn 16s\nBit rate                                 : 705 Kbps\nWidth                                    : 464 pixels\nHeight                                   : 256 pixels\nDisplay aspect ratio                     : 16:9\nFrame rate                               : 25.000 fps\nColor space                              : YUV\nChroma subsampling                       : 4:2:0\nBit depth                                : 8 bits\nScan type                                : Progressive\nCompression mode                         : Lossy\nBits/(Pixel*Frame)                       : 0.237\nStream size                              : 299 MiB (87%)\nWriting library                          : FFmpeg0.4.9-pre1b4736\n\nAudio\nID                                       : 1\nFormat                                   : MPEG Audio\nFormat version                           : Version 1\nFormat profile                           : Layer 3\nMode                                     : Joint stereo\nMode extension                           : MS Stereo\nCodec ID                                 : 55\nCodec ID/Hint                            : MP3\nDuration                                 : 59mn 16s\nBit rate mode                            : Constant\nBit rate                                 : 96.0 Kbps\nChannel(s)                               : 2 channels\nSampling rate                            : 44.1 KHz\nCompression mode                         : Lossy\nStream size                              : 40.7 MiB (12%)\nAlignment                                : Aligned on interleaves\nInterleave, duration                     : 26 ms (0.65 video frame)\n\n","torrent":{"xt":"urn:btih:e5d72829173736cf0bee510844fe5fde2c48e378","amp;dn":"Russian+Godfathers+","amp;tr":["udp%3A%2F%2Ftracker.openbittorrent.com%3A80","udp%3A%2F%2Fopen.demonii.com%3A1337","udp%3A%2F%2Ftracker.coppersurfer.tk%3A6969","udp%3A%2F%2Fexodus.desync.com%3A6969"],"infoHash":"e5d72829173736cf0bee510844fe5fde2c48e378","infoHashBuffer":{"type":"Buffer","data":[229,215,40,41,23,55,54,207,11,238,81,8,68,254,95,222,44,72,227,120]},"announce":[],"urlList":[]}}